<mxfile host="Electron" modified="2024-05-10T15:41:48.677Z" agent="Mozilla/5.0 (Macintosh; Intel Mac OS X 10_15_7) AppleWebKit/537.36 (KHTML, like Gecko) draw.io/24.2.5 Chrome/120.0.6099.109 Electron/28.1.0 Safari/537.36" etag="Miwdt5-I11Ly5v5N4ZwJ" version="24.2.5" type="device">
  <diagram name="Page-1" id="95KBzC3bPBCz8esykcFb">
    <mxGraphModel dx="1143" dy="803" grid="1" gridSize="10" guides="1" tooltips="1" connect="1" arrows="1" fold="1" page="1" pageScale="1" pageWidth="827" pageHeight="1169" math="0" shadow="0">
      <root>
        <mxCell id="0" />
        <mxCell id="1" parent="0" />
        <mxCell id="OQtLX1Wl-q_IwhfBD6F4-60" value="" style="rounded=1;whiteSpace=wrap;html=1;sketch=1;jiggle=2;curveFitting=1;strokeColor=#d79b00;align=center;verticalAlign=middle;fontFamily=Gloria Hallelujah;fontSource=https%3A%2F%2Ffonts.googleapis.com%2Fcss%3Ffamily%3DGloria%2BHallelujah;fontSize=16;labelBackgroundColor=default;fillColor=#ffe6cc;" vertex="1" parent="1">
          <mxGeometry x="308.75" y="910" width="470" height="120" as="geometry" />
        </mxCell>
        <mxCell id="OQtLX1Wl-q_IwhfBD6F4-48" style="edgeStyle=orthogonalEdgeStyle;curved=1;rounded=0;orthogonalLoop=1;jettySize=auto;html=1;exitX=0;exitY=0.25;exitDx=0;exitDy=0;strokeColor=default;strokeWidth=2;align=center;verticalAlign=middle;fontFamily=Gloria Hallelujah;fontSource=https%3A%2F%2Ffonts.googleapis.com%2Fcss%3Ffamily%3DGloria%2BHallelujah;fontSize=16;fontColor=default;labelBackgroundColor=default;endArrow=classic;flowAnimation=1;" edge="1" parent="1" source="OQtLX1Wl-q_IwhfBD6F4-1" target="OQtLX1Wl-q_IwhfBD6F4-4">
          <mxGeometry relative="1" as="geometry" />
        </mxCell>
        <mxCell id="OQtLX1Wl-q_IwhfBD6F4-49" style="edgeStyle=orthogonalEdgeStyle;curved=1;rounded=0;orthogonalLoop=1;jettySize=auto;html=1;exitX=1;exitY=0.25;exitDx=0;exitDy=0;strokeColor=default;strokeWidth=2;align=center;verticalAlign=middle;fontFamily=Gloria Hallelujah;fontSource=https%3A%2F%2Ffonts.googleapis.com%2Fcss%3Ffamily%3DGloria%2BHallelujah;fontSize=16;fontColor=default;labelBackgroundColor=default;endArrow=classic;flowAnimation=1;" edge="1" parent="1" source="OQtLX1Wl-q_IwhfBD6F4-1" target="OQtLX1Wl-q_IwhfBD6F4-16">
          <mxGeometry relative="1" as="geometry" />
        </mxCell>
        <mxCell id="OQtLX1Wl-q_IwhfBD6F4-1" value="DSPM" style="rounded=0;whiteSpace=wrap;html=1;sketch=1;curveFitting=1;jiggle=2;fontSize=16;fontFamily=Gloria Hallelujah;fontSource=https%3A%2F%2Ffonts.googleapis.com%2Fcss%3Ffamily%3DGloria%2BHallelujah;fillColor=#ffcd28;gradientColor=#ffa500;strokeColor=#d79b00;" vertex="1" parent="1">
          <mxGeometry x="300" y="562" width="200" height="44.32" as="geometry" />
        </mxCell>
        <mxCell id="OQtLX1Wl-q_IwhfBD6F4-2" value="S3" style="shape=cylinder3;whiteSpace=wrap;html=1;boundedLbl=1;backgroundOutline=1;size=15;rounded=0;sketch=1;jiggle=2;curveFitting=1;strokeColor=#b85450;align=center;verticalAlign=middle;fontFamily=Gloria Hallelujah;fontSource=https%3A%2F%2Ffonts.googleapis.com%2Fcss%3Ffamily%3DGloria%2BHallelujah;fontSize=16;fillColor=#f8cecc;" vertex="1" parent="1">
          <mxGeometry x="270" y="150" width="60" height="60" as="geometry" />
        </mxCell>
        <mxCell id="OQtLX1Wl-q_IwhfBD6F4-3" value="Redshift" style="shape=cylinder3;whiteSpace=wrap;html=1;boundedLbl=1;backgroundOutline=1;size=15;rounded=0;sketch=1;jiggle=2;curveFitting=1;strokeColor=#82b366;align=center;verticalAlign=middle;fontFamily=Gloria Hallelujah;fontSource=https%3A%2F%2Ffonts.googleapis.com%2Fcss%3Ffamily%3DGloria%2BHallelujah;fontSize=16;fillColor=#d5e8d4;" vertex="1" parent="1">
          <mxGeometry x="20" y="225" width="100" height="60" as="geometry" />
        </mxCell>
        <mxCell id="OQtLX1Wl-q_IwhfBD6F4-45" style="edgeStyle=orthogonalEdgeStyle;rounded=0;orthogonalLoop=1;jettySize=auto;html=1;exitX=0.25;exitY=0.25;exitDx=0;exitDy=0;exitPerimeter=0;entryX=0.5;entryY=1;entryDx=0;entryDy=0;fontFamily=Gloria Hallelujah;fontSource=https%3A%2F%2Ffonts.googleapis.com%2Fcss%3Ffamily%3DGloria%2BHallelujah;fontSize=16;fontColor=default;curved=1;flowAnimation=1;strokeWidth=2;" edge="1" parent="1" source="OQtLX1Wl-q_IwhfBD6F4-4" target="OQtLX1Wl-q_IwhfBD6F4-11">
          <mxGeometry relative="1" as="geometry" />
        </mxCell>
        <mxCell id="OQtLX1Wl-q_IwhfBD6F4-46" style="edgeStyle=orthogonalEdgeStyle;curved=1;rounded=0;orthogonalLoop=1;jettySize=auto;html=1;entryX=0.5;entryY=1;entryDx=0;entryDy=0;strokeColor=default;strokeWidth=2;align=center;verticalAlign=middle;fontFamily=Gloria Hallelujah;fontSource=https%3A%2F%2Ffonts.googleapis.com%2Fcss%3Ffamily%3DGloria%2BHallelujah;fontSize=16;fontColor=default;labelBackgroundColor=default;endArrow=classic;flowAnimation=1;exitX=0.486;exitY=0.098;exitDx=0;exitDy=0;exitPerimeter=0;" edge="1" parent="1" source="OQtLX1Wl-q_IwhfBD6F4-4" target="OQtLX1Wl-q_IwhfBD6F4-12">
          <mxGeometry relative="1" as="geometry" />
        </mxCell>
        <mxCell id="OQtLX1Wl-q_IwhfBD6F4-47" style="edgeStyle=orthogonalEdgeStyle;curved=1;rounded=0;orthogonalLoop=1;jettySize=auto;html=1;exitX=0.625;exitY=0.2;exitDx=0;exitDy=0;exitPerimeter=0;entryX=0.25;entryY=1;entryDx=0;entryDy=0;strokeColor=default;strokeWidth=2;align=center;verticalAlign=middle;fontFamily=Gloria Hallelujah;fontSource=https%3A%2F%2Ffonts.googleapis.com%2Fcss%3Ffamily%3DGloria%2BHallelujah;fontSize=16;fontColor=default;labelBackgroundColor=default;endArrow=classic;flowAnimation=1;" edge="1" parent="1" source="OQtLX1Wl-q_IwhfBD6F4-4" target="OQtLX1Wl-q_IwhfBD6F4-13">
          <mxGeometry relative="1" as="geometry" />
        </mxCell>
        <mxCell id="OQtLX1Wl-q_IwhfBD6F4-4" value="AWS" style="ellipse;shape=cloud;whiteSpace=wrap;html=1;rounded=0;sketch=1;jiggle=2;curveFitting=1;strokeColor=#d6b656;align=center;verticalAlign=middle;fontFamily=Gloria Hallelujah;fontSource=https%3A%2F%2Ffonts.googleapis.com%2Fcss%3Ffamily%3DGloria%2BHallelujah;fontSize=16;fillColor=#fff2cc;" vertex="1" parent="1">
          <mxGeometry x="100" y="400" width="180" height="120" as="geometry" />
        </mxCell>
        <mxCell id="OQtLX1Wl-q_IwhfBD6F4-5" value="RDS" style="shape=cylinder3;whiteSpace=wrap;html=1;boundedLbl=1;backgroundOutline=1;size=15;rounded=0;sketch=1;jiggle=2;curveFitting=1;strokeColor=#6c8ebf;align=center;verticalAlign=middle;fontFamily=Gloria Hallelujah;fontSource=https%3A%2F%2Ffonts.googleapis.com%2Fcss%3Ffamily%3DGloria%2BHallelujah;fontSize=16;fillColor=#dae8fc;" vertex="1" parent="1">
          <mxGeometry x="142.5" y="140" width="105" height="70" as="geometry" />
        </mxCell>
        <mxCell id="OQtLX1Wl-q_IwhfBD6F4-6" value="Dynamo DB" style="shape=cylinder3;whiteSpace=wrap;html=1;boundedLbl=1;backgroundOutline=1;size=15;rounded=0;sketch=1;jiggle=2;curveFitting=1;strokeColor=#6c8ebf;align=center;verticalAlign=middle;fontFamily=Gloria Hallelujah;fontSource=https%3A%2F%2Ffonts.googleapis.com%2Fcss%3Ffamily%3DGloria%2BHallelujah;fontSize=16;fillColor=#dae8fc;" vertex="1" parent="1">
          <mxGeometry x="145" y="215" width="100" height="70" as="geometry" />
        </mxCell>
        <mxCell id="OQtLX1Wl-q_IwhfBD6F4-8" value="EFS" style="shape=cylinder3;whiteSpace=wrap;html=1;boundedLbl=1;backgroundOutline=1;size=15;rounded=0;sketch=1;jiggle=2;curveFitting=1;strokeColor=#b85450;align=center;verticalAlign=middle;fontFamily=Gloria Hallelujah;fontSource=https%3A%2F%2Ffonts.googleapis.com%2Fcss%3Ffamily%3DGloria%2BHallelujah;fontSize=16;fillColor=#f8cecc;" vertex="1" parent="1">
          <mxGeometry x="270" y="225" width="60" height="60" as="geometry" />
        </mxCell>
        <mxCell id="OQtLX1Wl-q_IwhfBD6F4-9" value="FsX" style="shape=cylinder3;whiteSpace=wrap;html=1;boundedLbl=1;backgroundOutline=1;size=15;rounded=0;sketch=1;jiggle=2;curveFitting=1;strokeColor=#b85450;align=center;verticalAlign=middle;fontFamily=Gloria Hallelujah;fontSource=https%3A%2F%2Ffonts.googleapis.com%2Fcss%3Ffamily%3DGloria%2BHallelujah;fontSize=16;fillColor=#f8cecc;" vertex="1" parent="1">
          <mxGeometry x="270" y="60" width="60" height="70" as="geometry" />
        </mxCell>
        <mxCell id="OQtLX1Wl-q_IwhfBD6F4-10" value="Aurora" style="shape=cylinder3;whiteSpace=wrap;html=1;boundedLbl=1;backgroundOutline=1;size=15;rounded=0;sketch=1;jiggle=2;curveFitting=1;strokeColor=#6c8ebf;align=center;verticalAlign=middle;fontFamily=Gloria Hallelujah;fontSource=https%3A%2F%2Ffonts.googleapis.com%2Fcss%3Ffamily%3DGloria%2BHallelujah;fontSize=16;fillColor=#dae8fc;" vertex="1" parent="1">
          <mxGeometry x="145" y="70" width="100" height="60" as="geometry" />
        </mxCell>
        <mxCell id="OQtLX1Wl-q_IwhfBD6F4-11" value="Analytics" style="text;html=1;align=center;verticalAlign=middle;whiteSpace=wrap;rounded=0;fontFamily=Gloria Hallelujah;fontSource=https%3A%2F%2Ffonts.googleapis.com%2Fcss%3Ffamily%3DGloria%2BHallelujah;fontSize=16;fontColor=default;" vertex="1" parent="1">
          <mxGeometry x="40" y="300" width="60" height="30" as="geometry" />
        </mxCell>
        <mxCell id="OQtLX1Wl-q_IwhfBD6F4-12" value="Databases" style="text;html=1;align=center;verticalAlign=middle;whiteSpace=wrap;rounded=0;fontFamily=Gloria Hallelujah;fontSource=https%3A%2F%2Ffonts.googleapis.com%2Fcss%3Ffamily%3DGloria%2BHallelujah;fontSize=16;fontColor=default;" vertex="1" parent="1">
          <mxGeometry x="165" y="300" width="60" height="30" as="geometry" />
        </mxCell>
        <mxCell id="OQtLX1Wl-q_IwhfBD6F4-13" value="Storage" style="text;html=1;align=center;verticalAlign=middle;whiteSpace=wrap;rounded=0;fontFamily=Gloria Hallelujah;fontSource=https%3A%2F%2Ffonts.googleapis.com%2Fcss%3Ffamily%3DGloria%2BHallelujah;fontSize=16;fontColor=default;" vertex="1" parent="1">
          <mxGeometry x="270" y="300" width="60" height="30" as="geometry" />
        </mxCell>
        <mxCell id="OQtLX1Wl-q_IwhfBD6F4-14" value="Cloud&lt;div&gt;Storage&lt;/div&gt;" style="shape=cylinder3;whiteSpace=wrap;html=1;boundedLbl=1;backgroundOutline=1;size=15;rounded=0;sketch=1;jiggle=2;curveFitting=1;strokeColor=#b85450;align=center;verticalAlign=middle;fontFamily=Gloria Hallelujah;fontSource=https%3A%2F%2Ffonts.googleapis.com%2Fcss%3Ffamily%3DGloria%2BHallelujah;fontSize=16;fillColor=#f8cecc;" vertex="1" parent="1">
          <mxGeometry x="718.75" y="135" width="90" height="65" as="geometry" />
        </mxCell>
        <mxCell id="OQtLX1Wl-q_IwhfBD6F4-15" value="BigQuery" style="shape=cylinder3;whiteSpace=wrap;html=1;boundedLbl=1;backgroundOutline=1;size=15;rounded=0;sketch=1;jiggle=2;curveFitting=1;strokeColor=#82b366;align=center;verticalAlign=middle;fontFamily=Gloria Hallelujah;fontSource=https%3A%2F%2Ffonts.googleapis.com%2Fcss%3Ffamily%3DGloria%2BHallelujah;fontSize=16;fillColor=#d5e8d4;" vertex="1" parent="1">
          <mxGeometry x="468.75" y="215" width="100" height="60" as="geometry" />
        </mxCell>
        <mxCell id="OQtLX1Wl-q_IwhfBD6F4-50" style="edgeStyle=orthogonalEdgeStyle;curved=1;rounded=0;orthogonalLoop=1;jettySize=auto;html=1;exitX=0.25;exitY=0.25;exitDx=0;exitDy=0;exitPerimeter=0;entryX=0.5;entryY=1;entryDx=0;entryDy=0;strokeColor=default;strokeWidth=2;align=center;verticalAlign=middle;fontFamily=Gloria Hallelujah;fontSource=https%3A%2F%2Ffonts.googleapis.com%2Fcss%3Ffamily%3DGloria%2BHallelujah;fontSize=16;fontColor=default;labelBackgroundColor=default;endArrow=classic;flowAnimation=1;" edge="1" parent="1" source="OQtLX1Wl-q_IwhfBD6F4-16" target="OQtLX1Wl-q_IwhfBD6F4-22">
          <mxGeometry relative="1" as="geometry" />
        </mxCell>
        <mxCell id="OQtLX1Wl-q_IwhfBD6F4-52" style="edgeStyle=orthogonalEdgeStyle;curved=1;rounded=0;orthogonalLoop=1;jettySize=auto;html=1;exitX=0.4;exitY=0.1;exitDx=0;exitDy=0;exitPerimeter=0;entryX=0.5;entryY=1;entryDx=0;entryDy=0;strokeColor=default;strokeWidth=2;align=center;verticalAlign=middle;fontFamily=Gloria Hallelujah;fontSource=https%3A%2F%2Ffonts.googleapis.com%2Fcss%3Ffamily%3DGloria%2BHallelujah;fontSize=16;fontColor=default;labelBackgroundColor=default;endArrow=classic;flowAnimation=1;" edge="1" parent="1" source="OQtLX1Wl-q_IwhfBD6F4-16" target="OQtLX1Wl-q_IwhfBD6F4-23">
          <mxGeometry relative="1" as="geometry" />
        </mxCell>
        <mxCell id="OQtLX1Wl-q_IwhfBD6F4-16" value="GCP" style="ellipse;shape=cloud;whiteSpace=wrap;html=1;rounded=0;sketch=1;jiggle=2;curveFitting=1;strokeColor=#d6b656;align=center;verticalAlign=middle;fontFamily=Gloria Hallelujah;fontSource=https%3A%2F%2Ffonts.googleapis.com%2Fcss%3Ffamily%3DGloria%2BHallelujah;fontSize=16;fillColor=#fff2cc;" vertex="1" parent="1">
          <mxGeometry x="553.75" y="395" width="180" height="120" as="geometry" />
        </mxCell>
        <mxCell id="OQtLX1Wl-q_IwhfBD6F4-17" value="Cloud SQL" style="shape=cylinder3;whiteSpace=wrap;html=1;boundedLbl=1;backgroundOutline=1;size=15;rounded=0;sketch=1;jiggle=2;curveFitting=1;strokeColor=#6c8ebf;align=center;verticalAlign=middle;fontFamily=Gloria Hallelujah;fontSource=https%3A%2F%2Ffonts.googleapis.com%2Fcss%3Ffamily%3DGloria%2BHallelujah;fontSize=16;fillColor=#dae8fc;" vertex="1" parent="1">
          <mxGeometry x="591.25" y="130" width="105" height="70" as="geometry" />
        </mxCell>
        <mxCell id="OQtLX1Wl-q_IwhfBD6F4-18" value="Cloud&lt;div&gt;BigTable&lt;/div&gt;" style="shape=cylinder3;whiteSpace=wrap;html=1;boundedLbl=1;backgroundOutline=1;size=15;rounded=0;sketch=1;jiggle=2;curveFitting=1;strokeColor=#6c8ebf;align=center;verticalAlign=middle;fontFamily=Gloria Hallelujah;fontSource=https%3A%2F%2Ffonts.googleapis.com%2Fcss%3Ffamily%3DGloria%2BHallelujah;fontSize=16;fillColor=#dae8fc;" vertex="1" parent="1">
          <mxGeometry x="593.75" y="205" width="100" height="70" as="geometry" />
        </mxCell>
        <mxCell id="OQtLX1Wl-q_IwhfBD6F4-19" value="Filestore" style="shape=cylinder3;whiteSpace=wrap;html=1;boundedLbl=1;backgroundOutline=1;size=15;rounded=0;sketch=1;jiggle=2;curveFitting=1;strokeColor=#b85450;align=center;verticalAlign=middle;fontFamily=Gloria Hallelujah;fontSource=https%3A%2F%2Ffonts.googleapis.com%2Fcss%3Ffamily%3DGloria%2BHallelujah;fontSize=16;fillColor=#f8cecc;" vertex="1" parent="1">
          <mxGeometry x="718.75" y="215" width="90" height="60" as="geometry" />
        </mxCell>
        <mxCell id="OQtLX1Wl-q_IwhfBD6F4-22" value="Analytics" style="text;html=1;align=center;verticalAlign=middle;whiteSpace=wrap;rounded=0;fontFamily=Gloria Hallelujah;fontSource=https%3A%2F%2Ffonts.googleapis.com%2Fcss%3Ffamily%3DGloria%2BHallelujah;fontSize=16;fontColor=default;" vertex="1" parent="1">
          <mxGeometry x="488.75" y="290" width="60" height="30" as="geometry" />
        </mxCell>
        <mxCell id="OQtLX1Wl-q_IwhfBD6F4-23" value="Databases" style="text;html=1;align=center;verticalAlign=middle;whiteSpace=wrap;rounded=0;fontFamily=Gloria Hallelujah;fontSource=https%3A%2F%2Ffonts.googleapis.com%2Fcss%3Ffamily%3DGloria%2BHallelujah;fontSize=16;fontColor=default;" vertex="1" parent="1">
          <mxGeometry x="613.75" y="290" width="60" height="30" as="geometry" />
        </mxCell>
        <mxCell id="OQtLX1Wl-q_IwhfBD6F4-24" value="Storage" style="text;html=1;align=center;verticalAlign=middle;whiteSpace=wrap;rounded=0;fontFamily=Gloria Hallelujah;fontSource=https%3A%2F%2Ffonts.googleapis.com%2Fcss%3Ffamily%3DGloria%2BHallelujah;fontSize=16;fontColor=default;" vertex="1" parent="1">
          <mxGeometry x="718.75" y="290" width="60" height="30" as="geometry" />
        </mxCell>
        <mxCell id="OQtLX1Wl-q_IwhfBD6F4-57" style="edgeStyle=orthogonalEdgeStyle;curved=1;rounded=0;orthogonalLoop=1;jettySize=auto;html=1;exitX=0.55;exitY=0.95;exitDx=0;exitDy=0;exitPerimeter=0;entryX=0.5;entryY=0;entryDx=0;entryDy=0;strokeColor=default;strokeWidth=2;align=center;verticalAlign=middle;fontFamily=Gloria Hallelujah;fontSource=https%3A%2F%2Ffonts.googleapis.com%2Fcss%3Ffamily%3DGloria%2BHallelujah;fontSize=16;fontColor=default;labelBackgroundColor=default;endArrow=classic;flowAnimation=1;" edge="1" parent="1" source="OQtLX1Wl-q_IwhfBD6F4-25" target="OQtLX1Wl-q_IwhfBD6F4-27">
          <mxGeometry relative="1" as="geometry" />
        </mxCell>
        <mxCell id="OQtLX1Wl-q_IwhfBD6F4-58" style="edgeStyle=orthogonalEdgeStyle;curved=1;rounded=0;orthogonalLoop=1;jettySize=auto;html=1;exitX=0.8;exitY=0.8;exitDx=0;exitDy=0;exitPerimeter=0;entryX=0.75;entryY=0;entryDx=0;entryDy=0;strokeColor=default;strokeWidth=2;align=center;verticalAlign=middle;fontFamily=Gloria Hallelujah;fontSource=https%3A%2F%2Ffonts.googleapis.com%2Fcss%3Ffamily%3DGloria%2BHallelujah;fontSize=16;fontColor=default;labelBackgroundColor=default;endArrow=classic;flowAnimation=1;" edge="1" parent="1" source="OQtLX1Wl-q_IwhfBD6F4-25" target="OQtLX1Wl-q_IwhfBD6F4-28">
          <mxGeometry relative="1" as="geometry" />
        </mxCell>
        <mxCell id="OQtLX1Wl-q_IwhfBD6F4-25" value="Azure" style="ellipse;shape=cloud;whiteSpace=wrap;html=1;rounded=0;sketch=1;jiggle=2;curveFitting=1;strokeColor=#d6b656;align=center;verticalAlign=middle;fontFamily=Gloria Hallelujah;fontSource=https%3A%2F%2Ffonts.googleapis.com%2Fcss%3Ffamily%3DGloria%2BHallelujah;fontSize=16;fillColor=#fff2cc;" vertex="1" parent="1">
          <mxGeometry x="60" y="680" width="180" height="120" as="geometry" />
        </mxCell>
        <mxCell id="OQtLX1Wl-q_IwhfBD6F4-27" value="Databases" style="text;html=1;align=center;verticalAlign=middle;whiteSpace=wrap;rounded=0;fontFamily=Gloria Hallelujah;fontSource=https%3A%2F%2Ffonts.googleapis.com%2Fcss%3Ffamily%3DGloria%2BHallelujah;fontSize=16;fontColor=default;" vertex="1" parent="1">
          <mxGeometry x="60" y="870" width="60" height="30" as="geometry" />
        </mxCell>
        <mxCell id="OQtLX1Wl-q_IwhfBD6F4-28" value="Storage" style="text;html=1;align=center;verticalAlign=middle;whiteSpace=wrap;rounded=0;fontFamily=Gloria Hallelujah;fontSource=https%3A%2F%2Ffonts.googleapis.com%2Fcss%3Ffamily%3DGloria%2BHallelujah;fontSize=16;fontColor=default;" vertex="1" parent="1">
          <mxGeometry x="183.75" y="870" width="60" height="30" as="geometry" />
        </mxCell>
        <mxCell id="OQtLX1Wl-q_IwhfBD6F4-29" value="Blob&lt;div&gt;Storage&lt;/div&gt;" style="shape=cylinder3;whiteSpace=wrap;html=1;boundedLbl=1;backgroundOutline=1;size=15;rounded=0;sketch=1;jiggle=2;curveFitting=1;strokeColor=#b85450;align=center;verticalAlign=middle;fontFamily=Gloria Hallelujah;fontSource=https%3A%2F%2Ffonts.googleapis.com%2Fcss%3Ffamily%3DGloria%2BHallelujah;fontSize=16;fillColor=#f8cecc;" vertex="1" parent="1">
          <mxGeometry x="167.5" y="1000" width="92.5" height="80" as="geometry" />
        </mxCell>
        <mxCell id="OQtLX1Wl-q_IwhfBD6F4-30" value="Azure SQL" style="shape=cylinder3;whiteSpace=wrap;html=1;boundedLbl=1;backgroundOutline=1;size=15;rounded=0;sketch=1;jiggle=2;curveFitting=1;strokeColor=#6c8ebf;align=center;verticalAlign=middle;fontFamily=Gloria Hallelujah;fontSource=https%3A%2F%2Ffonts.googleapis.com%2Fcss%3Ffamily%3DGloria%2BHallelujah;fontSize=16;fillColor=#dae8fc;" vertex="1" parent="1">
          <mxGeometry x="40" y="990" width="105" height="70" as="geometry" />
        </mxCell>
        <mxCell id="OQtLX1Wl-q_IwhfBD6F4-31" value="CosmosDB" style="shape=cylinder3;whiteSpace=wrap;html=1;boundedLbl=1;backgroundOutline=1;size=15;rounded=0;sketch=1;jiggle=2;curveFitting=1;strokeColor=#6c8ebf;align=center;verticalAlign=middle;fontFamily=Gloria Hallelujah;fontSource=https%3A%2F%2Ffonts.googleapis.com%2Fcss%3Ffamily%3DGloria%2BHallelujah;fontSize=16;fillColor=#dae8fc;" vertex="1" parent="1">
          <mxGeometry x="42.5" y="1070" width="100" height="70" as="geometry" />
        </mxCell>
        <mxCell id="OQtLX1Wl-q_IwhfBD6F4-33" value="NetApp&lt;div&gt;Files&lt;/div&gt;" style="shape=cylinder3;whiteSpace=wrap;html=1;boundedLbl=1;backgroundOutline=1;size=15;rounded=0;sketch=1;jiggle=2;curveFitting=1;strokeColor=#b85450;align=center;verticalAlign=middle;fontFamily=Gloria Hallelujah;fontSource=https%3A%2F%2Ffonts.googleapis.com%2Fcss%3Ffamily%3DGloria%2BHallelujah;fontSize=16;fillColor=#f8cecc;" vertex="1" parent="1">
          <mxGeometry x="167.5" y="910" width="92.5" height="70" as="geometry" />
        </mxCell>
        <mxCell id="OQtLX1Wl-q_IwhfBD6F4-34" value="SQL Server" style="shape=cylinder3;whiteSpace=wrap;html=1;boundedLbl=1;backgroundOutline=1;size=15;rounded=0;sketch=1;jiggle=2;curveFitting=1;strokeColor=#6c8ebf;align=center;verticalAlign=middle;fontFamily=Gloria Hallelujah;fontSource=https%3A%2F%2Ffonts.googleapis.com%2Fcss%3Ffamily%3DGloria%2BHallelujah;fontSize=16;fillColor=#dae8fc;" vertex="1" parent="1">
          <mxGeometry x="42.5" y="920" width="100" height="60" as="geometry" />
        </mxCell>
        <mxCell id="OQtLX1Wl-q_IwhfBD6F4-35" value="Snowflake" style="ellipse;shape=cloud;whiteSpace=wrap;html=1;rounded=0;sketch=1;jiggle=2;curveFitting=1;strokeColor=#82b366;align=center;verticalAlign=middle;fontFamily=Gloria Hallelujah;fontSource=https%3A%2F%2Ffonts.googleapis.com%2Fcss%3Ffamily%3DGloria%2BHallelujah;fontSize=16;fillColor=#d5e8d4;" vertex="1" parent="1">
          <mxGeometry x="652.5" y="745" width="150" height="100" as="geometry" />
        </mxCell>
        <mxCell id="OQtLX1Wl-q_IwhfBD6F4-36" value="o365" style="ellipse;shape=cloud;whiteSpace=wrap;html=1;rounded=0;sketch=1;jiggle=2;curveFitting=1;strokeColor=#82b366;align=center;verticalAlign=middle;fontFamily=Gloria Hallelujah;fontSource=https%3A%2F%2Ffonts.googleapis.com%2Fcss%3Ffamily%3DGloria%2BHallelujah;fontSize=16;fillColor=#d5e8d4;" vertex="1" parent="1">
          <mxGeometry x="577.5" y="785" width="105" height="70" as="geometry" />
        </mxCell>
        <mxCell id="OQtLX1Wl-q_IwhfBD6F4-37" value="SaaS" style="ellipse;shape=cloud;whiteSpace=wrap;html=1;rounded=0;sketch=1;jiggle=2;curveFitting=1;strokeColor=#82b366;align=center;verticalAlign=middle;fontFamily=Gloria Hallelujah;fontSource=https%3A%2F%2Ffonts.googleapis.com%2Fcss%3Ffamily%3DGloria%2BHallelujah;fontSize=16;fillColor=#d5e8d4;gradientColor=#97d077;" vertex="1" parent="1">
          <mxGeometry x="552.5" y="705" width="150" height="100" as="geometry" />
        </mxCell>
        <mxCell id="OQtLX1Wl-q_IwhfBD6F4-59" style="edgeStyle=orthogonalEdgeStyle;curved=1;rounded=0;orthogonalLoop=1;jettySize=auto;html=1;exitX=0.55;exitY=0.95;exitDx=0;exitDy=0;exitPerimeter=0;entryX=0.371;entryY=0.045;entryDx=0;entryDy=0;strokeColor=default;strokeWidth=2;align=center;verticalAlign=middle;fontFamily=Gloria Hallelujah;fontSource=https%3A%2F%2Ffonts.googleapis.com%2Fcss%3Ffamily%3DGloria%2BHallelujah;fontSize=16;fontColor=default;labelBackgroundColor=default;endArrow=classic;flowAnimation=1;entryPerimeter=0;" edge="1" parent="1" source="OQtLX1Wl-q_IwhfBD6F4-38" target="OQtLX1Wl-q_IwhfBD6F4-39">
          <mxGeometry relative="1" as="geometry" />
        </mxCell>
        <mxCell id="OQtLX1Wl-q_IwhfBD6F4-39" value="Unmanaged DB" style="text;html=1;align=center;verticalAlign=middle;whiteSpace=wrap;rounded=0;fontFamily=Gloria Hallelujah;fontSource=https%3A%2F%2Ffonts.googleapis.com%2Fcss%3Ffamily%3DGloria%2BHallelujah;fontSize=16;fontColor=default;" vertex="1" parent="1">
          <mxGeometry x="392" y="870" width="126" height="30" as="geometry" />
        </mxCell>
        <mxCell id="OQtLX1Wl-q_IwhfBD6F4-40" value="PostgreSQL" style="shape=image;imageAspect=0;aspect=fixed;verticalLabelPosition=bottom;verticalAlign=top;rounded=0;sketch=1;jiggle=2;curveFitting=1;strokeColor=default;align=center;fontFamily=Gloria Hallelujah;fontSource=https%3A%2F%2Ffonts.googleapis.com%2Fcss%3Ffamily%3DGloria%2BHallelujah;fontSize=16;fontColor=default;fillColor=default;image=https://upload.wikimedia.org/wikipedia/commons/thumb/2/29/Postgresql_elephant.svg/1200px-Postgresql_elephant.svg.png;" vertex="1" parent="1">
          <mxGeometry x="348.75" y="928.74" width="48.46" height="50" as="geometry" />
        </mxCell>
        <mxCell id="OQtLX1Wl-q_IwhfBD6F4-41" value="MongoDB" style="shape=image;imageAspect=0;aspect=fixed;verticalLabelPosition=bottom;verticalAlign=top;rounded=0;sketch=1;jiggle=2;curveFitting=1;strokeColor=default;align=center;fontFamily=Gloria Hallelujah;fontSource=https%3A%2F%2Ffonts.googleapis.com%2Fcss%3Ffamily%3DGloria%2BHallelujah;fontSize=16;fontColor=default;fillColor=default;image=https://static-00.iconduck.com/assets.00/mongodb-original-icon-921x2048-hvrb89lu.png;" vertex="1" parent="1">
          <mxGeometry x="457.78000000000003" y="929.99" width="21.94" height="48.75" as="geometry" />
        </mxCell>
        <mxCell id="OQtLX1Wl-q_IwhfBD6F4-42" value="MySQL" style="shape=image;imageAspect=0;aspect=fixed;verticalLabelPosition=bottom;verticalAlign=top;rounded=0;sketch=1;jiggle=2;curveFitting=1;strokeColor=default;align=center;fontFamily=Gloria Hallelujah;fontSource=https%3A%2F%2Ffonts.googleapis.com%2Fcss%3Ffamily%3DGloria%2BHallelujah;fontSize=16;fontColor=default;fillColor=default;image=https://cdn.iconscout.com/icon/free/png-256/free-mysql-20-1174940.png;" vertex="1" parent="1">
          <mxGeometry x="528.75" y="929.37" width="50" height="50" as="geometry" />
        </mxCell>
        <mxCell id="OQtLX1Wl-q_IwhfBD6F4-43" value="MariaDB" style="shape=image;imageAspect=0;aspect=fixed;verticalLabelPosition=bottom;verticalAlign=top;rounded=0;sketch=1;jiggle=2;curveFitting=1;strokeColor=default;align=center;fontFamily=Gloria Hallelujah;fontSource=https%3A%2F%2Ffonts.googleapis.com%2Fcss%3Ffamily%3DGloria%2BHallelujah;fontSize=16;fontColor=default;fillColor=default;image=https://cdn.icon-icons.com/icons2/2699/PNG/512/mariadb_logo_icon_170968.png;" vertex="1" parent="1">
          <mxGeometry x="613.75" y="920" width="60" height="60" as="geometry" />
        </mxCell>
        <mxCell id="OQtLX1Wl-q_IwhfBD6F4-44" value="MSSQL" style="shape=image;imageAspect=0;aspect=fixed;verticalLabelPosition=bottom;verticalAlign=top;rounded=0;sketch=1;jiggle=2;curveFitting=1;strokeColor=default;align=center;fontFamily=Gloria Hallelujah;fontSource=https%3A%2F%2Ffonts.googleapis.com%2Fcss%3Ffamily%3DGloria%2BHallelujah;fontSize=16;fontColor=default;fillColor=default;image=https://www.freeiconspng.com/thumbs/sql-server-icon-png/sql-server-icon-8.png;" vertex="1" parent="1">
          <mxGeometry x="703.12" y="924.37" width="55.63" height="55.63" as="geometry" />
        </mxCell>
        <mxCell id="OQtLX1Wl-q_IwhfBD6F4-51" style="edgeStyle=orthogonalEdgeStyle;curved=1;rounded=0;orthogonalLoop=1;jettySize=auto;html=1;exitX=0.625;exitY=0.2;exitDx=0;exitDy=0;exitPerimeter=0;entryX=0.617;entryY=1.009;entryDx=0;entryDy=0;entryPerimeter=0;strokeColor=default;strokeWidth=2;align=center;verticalAlign=middle;fontFamily=Gloria Hallelujah;fontSource=https%3A%2F%2Ffonts.googleapis.com%2Fcss%3Ffamily%3DGloria%2BHallelujah;fontSize=16;fontColor=default;labelBackgroundColor=default;endArrow=classic;flowAnimation=1;" edge="1" parent="1" source="OQtLX1Wl-q_IwhfBD6F4-16" target="OQtLX1Wl-q_IwhfBD6F4-24">
          <mxGeometry relative="1" as="geometry" />
        </mxCell>
        <mxCell id="OQtLX1Wl-q_IwhfBD6F4-53" style="edgeStyle=orthogonalEdgeStyle;curved=1;rounded=0;orthogonalLoop=1;jettySize=auto;html=1;exitX=0;exitY=0.75;exitDx=0;exitDy=0;entryX=0.553;entryY=0.134;entryDx=0;entryDy=0;entryPerimeter=0;strokeColor=default;strokeWidth=2;align=center;verticalAlign=middle;fontFamily=Gloria Hallelujah;fontSource=https%3A%2F%2Ffonts.googleapis.com%2Fcss%3Ffamily%3DGloria%2BHallelujah;fontSize=16;fontColor=default;labelBackgroundColor=default;endArrow=classic;flowAnimation=1;" edge="1" parent="1" source="OQtLX1Wl-q_IwhfBD6F4-1" target="OQtLX1Wl-q_IwhfBD6F4-25">
          <mxGeometry relative="1" as="geometry" />
        </mxCell>
        <mxCell id="OQtLX1Wl-q_IwhfBD6F4-54" style="edgeStyle=orthogonalEdgeStyle;curved=1;rounded=0;orthogonalLoop=1;jettySize=auto;html=1;exitX=0.5;exitY=1;exitDx=0;exitDy=0;entryX=0.625;entryY=0.2;entryDx=0;entryDy=0;entryPerimeter=0;strokeColor=default;strokeWidth=2;align=center;verticalAlign=middle;fontFamily=Gloria Hallelujah;fontSource=https%3A%2F%2Ffonts.googleapis.com%2Fcss%3Ffamily%3DGloria%2BHallelujah;fontSize=16;fontColor=default;labelBackgroundColor=default;endArrow=classic;flowAnimation=1;" edge="1" parent="1" source="OQtLX1Wl-q_IwhfBD6F4-1" target="OQtLX1Wl-q_IwhfBD6F4-38">
          <mxGeometry relative="1" as="geometry" />
        </mxCell>
        <mxCell id="OQtLX1Wl-q_IwhfBD6F4-55" style="edgeStyle=orthogonalEdgeStyle;curved=1;rounded=0;orthogonalLoop=1;jettySize=auto;html=1;exitX=1;exitY=0.75;exitDx=0;exitDy=0;entryX=0.4;entryY=0.1;entryDx=0;entryDy=0;entryPerimeter=0;strokeColor=default;strokeWidth=2;align=center;verticalAlign=middle;fontFamily=Gloria Hallelujah;fontSource=https%3A%2F%2Ffonts.googleapis.com%2Fcss%3Ffamily%3DGloria%2BHallelujah;fontSize=16;fontColor=default;labelBackgroundColor=default;endArrow=classic;flowAnimation=1;" edge="1" parent="1" source="OQtLX1Wl-q_IwhfBD6F4-1" target="OQtLX1Wl-q_IwhfBD6F4-37">
          <mxGeometry relative="1" as="geometry" />
        </mxCell>
        <mxCell id="OQtLX1Wl-q_IwhfBD6F4-61" value="PaaS" style="ellipse;shape=cloud;whiteSpace=wrap;html=1;rounded=0;sketch=1;jiggle=2;curveFitting=1;strokeColor=#666666;align=center;verticalAlign=middle;fontFamily=Gloria Hallelujah;fontSource=https%3A%2F%2Ffonts.googleapis.com%2Fcss%3Ffamily%3DGloria%2BHallelujah;fontSize=16;fillColor=#f5f5f5;gradientColor=#b3b3b3;" vertex="1" parent="1">
          <mxGeometry x="175" y="670" width="105" height="70" as="geometry" />
        </mxCell>
        <mxCell id="OQtLX1Wl-q_IwhfBD6F4-62" value="PaaS" style="ellipse;shape=cloud;whiteSpace=wrap;html=1;rounded=0;sketch=1;jiggle=2;curveFitting=1;strokeColor=#666666;align=center;verticalAlign=middle;fontFamily=Gloria Hallelujah;fontSource=https%3A%2F%2Ffonts.googleapis.com%2Fcss%3Ffamily%3DGloria%2BHallelujah;fontSize=16;fillColor=#f5f5f5;gradientColor=#b3b3b3;" vertex="1" parent="1">
          <mxGeometry x="220" y="450" width="105" height="70" as="geometry" />
        </mxCell>
        <mxCell id="OQtLX1Wl-q_IwhfBD6F4-63" value="PaaS" style="ellipse;shape=cloud;whiteSpace=wrap;html=1;rounded=0;sketch=1;jiggle=2;curveFitting=1;strokeColor=#666666;align=center;verticalAlign=middle;fontFamily=Gloria Hallelujah;fontSource=https%3A%2F%2Ffonts.googleapis.com%2Fcss%3Ffamily%3DGloria%2BHallelujah;fontSize=16;fillColor=#f5f5f5;gradientColor=#b3b3b3;" vertex="1" parent="1">
          <mxGeometry x="531.25" y="465" width="105" height="70" as="geometry" />
        </mxCell>
        <mxCell id="OQtLX1Wl-q_IwhfBD6F4-64" value="on Premise" style="rounded=1;whiteSpace=wrap;html=1;sketch=1;jiggle=2;curveFitting=1;strokeColor=#6c8ebf;align=center;verticalAlign=middle;fontFamily=Gloria Hallelujah;fontSource=https%3A%2F%2Ffonts.googleapis.com%2Fcss%3Ffamily%3DGloria%2BHallelujah;fontSize=16;labelBackgroundColor=none;fillColor=#dae8fc;" vertex="1" parent="1">
          <mxGeometry x="640" y="562" width="120" height="60" as="geometry" />
        </mxCell>
        <mxCell id="OQtLX1Wl-q_IwhfBD6F4-65" value="File&lt;div&gt;Share&lt;/div&gt;" style="shape=cylinder3;whiteSpace=wrap;html=1;boundedLbl=1;backgroundOutline=1;size=15;rounded=0;sketch=1;jiggle=2;curveFitting=1;strokeColor=#b85450;align=center;verticalAlign=middle;fontFamily=Gloria Hallelujah;fontSource=https%3A%2F%2Ffonts.googleapis.com%2Fcss%3Ffamily%3DGloria%2BHallelujah;fontSize=16;labelBackgroundColor=none;fillColor=#f8cecc;gradientColor=#ea6b66;" vertex="1" parent="1">
          <mxGeometry x="748.75" y="505" width="60" height="80" as="geometry" />
        </mxCell>
        <mxCell id="OQtLX1Wl-q_IwhfBD6F4-66" value="CIFS&lt;div&gt;SMB&lt;/div&gt;" style="shape=document;whiteSpace=wrap;html=1;boundedLbl=1;rounded=0;sketch=1;jiggle=2;curveFitting=1;strokeColor=#b85450;align=center;verticalAlign=middle;fontFamily=Gloria Hallelujah;fontSource=https%3A%2F%2Ffonts.googleapis.com%2Fcss%3Ffamily%3DGloria%2BHallelujah;fontSize=16;labelBackgroundColor=none;fillColor=#f8cecc;gradientColor=#ea6b66;" vertex="1" parent="1">
          <mxGeometry x="730" y="606.32" width="97.5" height="65" as="geometry" />
        </mxCell>
        <mxCell id="OQtLX1Wl-q_IwhfBD6F4-67" style="edgeStyle=orthogonalEdgeStyle;curved=1;rounded=0;orthogonalLoop=1;jettySize=auto;html=1;exitX=1;exitY=0.5;exitDx=0;exitDy=0;entryX=0.015;entryY=0.366;entryDx=0;entryDy=0;entryPerimeter=0;strokeColor=default;strokeWidth=2;align=center;verticalAlign=middle;fontFamily=Gloria Hallelujah;fontSource=https%3A%2F%2Ffonts.googleapis.com%2Fcss%3Ffamily%3DGloria%2BHallelujah;fontSize=16;fontColor=default;labelBackgroundColor=default;endArrow=classic;flowAnimation=1;" edge="1" parent="1" source="OQtLX1Wl-q_IwhfBD6F4-1" target="OQtLX1Wl-q_IwhfBD6F4-64">
          <mxGeometry relative="1" as="geometry" />
        </mxCell>
        <mxCell id="OQtLX1Wl-q_IwhfBD6F4-68" value="" style="shape=image;imageAspect=0;aspect=fixed;verticalLabelPosition=bottom;verticalAlign=top;rounded=0;sketch=1;jiggle=2;curveFitting=1;strokeColor=default;align=center;fontFamily=Gloria Hallelujah;fontSource=https%3A%2F%2Ffonts.googleapis.com%2Fcss%3Ffamily%3DGloria%2BHallelujah;fontSize=16;fontColor=default;labelBackgroundColor=default;fillColor=default;image=https://upload.wikimedia.org/wikipedia/commons/thumb/9/93/Amazon_Web_Services_Logo.svg/2560px-Amazon_Web_Services_Logo.svg.png;" vertex="1" parent="1">
          <mxGeometry x="44.09" y="450" width="51.83" height="31" as="geometry" />
        </mxCell>
        <mxCell id="OQtLX1Wl-q_IwhfBD6F4-69" value="" style="shape=image;imageAspect=0;aspect=fixed;verticalLabelPosition=bottom;verticalAlign=top;rounded=0;sketch=1;jiggle=2;curveFitting=1;strokeColor=default;align=center;fontFamily=Gloria Hallelujah;fontSource=https%3A%2F%2Ffonts.googleapis.com%2Fcss%3Ffamily%3DGloria%2BHallelujah;fontSize=16;fontColor=default;labelBackgroundColor=default;fillColor=default;image=https://static-00.iconduck.com/assets.00/google-cloud-icon-2048x1646-7admxejz.png;" vertex="1" parent="1">
          <mxGeometry x="728.99" y="400" width="49.76" height="40" as="geometry" />
        </mxCell>
        <mxCell id="OQtLX1Wl-q_IwhfBD6F4-70" value="" style="shape=image;imageAspect=0;aspect=fixed;verticalLabelPosition=bottom;verticalAlign=top;rounded=0;sketch=1;jiggle=2;curveFitting=1;strokeColor=default;align=center;fontFamily=Gloria Hallelujah;fontSource=https%3A%2F%2Ffonts.googleapis.com%2Fcss%3Ffamily%3DGloria%2BHallelujah;fontSize=16;fontColor=default;labelBackgroundColor=default;fillColor=default;image=https://swimburger.net/media/ppnn3pcl/azure.png;" vertex="1" parent="1">
          <mxGeometry x="20" y="715" width="50" height="50" as="geometry" />
        </mxCell>
        <mxCell id="OQtLX1Wl-q_IwhfBD6F4-71" value="VM" style="whiteSpace=wrap;html=1;aspect=fixed;rounded=0;sketch=1;jiggle=2;curveFitting=1;strokeColor=#d6b656;align=center;verticalAlign=middle;fontFamily=Gloria Hallelujah;fontSource=https%3A%2F%2Ffonts.googleapis.com%2Fcss%3Ffamily%3DGloria%2BHallelujah;fontSize=16;labelBackgroundColor=none;fillColor=#fff2cc;gradientColor=#ffd966;" vertex="1" parent="1">
          <mxGeometry x="350" y="712.5" width="55" height="55" as="geometry" />
        </mxCell>
        <mxCell id="OQtLX1Wl-q_IwhfBD6F4-72" value="VM" style="whiteSpace=wrap;html=1;aspect=fixed;rounded=0;sketch=1;jiggle=2;curveFitting=1;strokeColor=#d6b656;align=center;verticalAlign=middle;fontFamily=Gloria Hallelujah;fontSource=https%3A%2F%2Ffonts.googleapis.com%2Fcss%3Ffamily%3DGloria%2BHallelujah;fontSize=16;labelBackgroundColor=none;fillColor=#fff2cc;gradientColor=#ffd966;" vertex="1" parent="1">
          <mxGeometry x="330" y="750" width="55" height="55" as="geometry" />
        </mxCell>
        <mxCell id="OQtLX1Wl-q_IwhfBD6F4-73" value="VM" style="whiteSpace=wrap;html=1;aspect=fixed;rounded=0;sketch=1;jiggle=2;curveFitting=1;strokeColor=#d6b656;align=center;verticalAlign=middle;fontFamily=Gloria Hallelujah;fontSource=https%3A%2F%2Ffonts.googleapis.com%2Fcss%3Ffamily%3DGloria%2BHallelujah;fontSize=16;labelBackgroundColor=none;fillColor=#fff2cc;gradientColor=#ffd966;" vertex="1" parent="1">
          <mxGeometry x="372.5" y="767.5" width="55" height="55" as="geometry" />
        </mxCell>
        <mxCell id="OQtLX1Wl-q_IwhfBD6F4-75" value="&lt;div&gt;What is a DSPM?&lt;/div&gt;&lt;div&gt;=================&lt;/div&gt;&lt;div&gt;&lt;br&gt;&lt;div&gt;The way to identify, analyse and prioritise protection of Data Resources across Hybrid/Multiple Cloud Environment&amp;nbsp;&lt;/div&gt;&lt;/div&gt;" style="shape=callout;whiteSpace=wrap;html=1;perimeter=calloutPerimeter;rounded=0;sketch=1;jiggle=2;curveFitting=1;strokeColor=default;align=center;verticalAlign=middle;fontFamily=Gloria Hallelujah;fontSource=https%3A%2F%2Ffonts.googleapis.com%2Fcss%3Ffamily%3DGloria%2BHallelujah;fontSize=14;fontColor=default;labelBackgroundColor=none;fillColor=default;" vertex="1" parent="1">
          <mxGeometry x="330" y="370" width="176" height="200" as="geometry" />
        </mxCell>
        <mxCell id="OQtLX1Wl-q_IwhfBD6F4-38" value="IaaS" style="ellipse;shape=cloud;whiteSpace=wrap;html=1;rounded=0;sketch=1;jiggle=2;curveFitting=1;strokeColor=#6c8ebf;align=center;verticalAlign=middle;fontFamily=Gloria Hallelujah;fontSource=https%3A%2F%2Ffonts.googleapis.com%2Fcss%3Ffamily%3DGloria%2BHallelujah;fontSize=16;fillColor=#dae8fc;gradientColor=#7ea6e0;" vertex="1" parent="1">
          <mxGeometry x="380" y="705" width="150" height="100" as="geometry" />
        </mxCell>
      </root>
    </mxGraphModel>
  </diagram>
</mxfile>
